<?xml version="1.0" encoding="UTF-8" standalone="no"?>
<!-- Created with Inkscape (http://www.inkscape.org/) -->

<svg
   xmlns:dc="http://purl.org/dc/elements/1.1/"
   xmlns:cc="http://creativecommons.org/ns#"
   xmlns:rdf="http://www.w3.org/1999/02/22-rdf-syntax-ns#"
   xmlns:svg="http://www.w3.org/2000/svg"
   xmlns="http://www.w3.org/2000/svg"
   xmlns:sodipodi="http://sodipodi.sourceforge.net/DTD/sodipodi-0.dtd"
   xmlns:inkscape="http://www.inkscape.org/namespaces/inkscape"
   id="svg2"
   version="1.1"
   inkscape:version="0.91 r13725"
   xml:space="preserve"
   width="484.2453"
   height="117.36877"
   viewBox="0 0 484.2453 117.36878"
   sodipodi:docname="radar_image.svg"><metadata
     id="metadata8"><rdf:RDF><cc:Work
         rdf:about=""><dc:format>image/svg+xml</dc:format><dc:type
           rdf:resource="http://purl.org/dc/dcmitype/StillImage" /><dc:title></dc:title></cc:Work></rdf:RDF></metadata><defs
     id="defs6"><clipPath
       clipPathUnits="userSpaceOnUse"
       id="clipPath78"><path
         d="m 1286.4,5785.22 0,-949.42 3401,0 0,949.42 -3401,0 z"
         id="path80"
         inkscape:connector-curvature="0" /></clipPath><clipPath
       clipPathUnits="userSpaceOnUse"
       id="clipPath100"><path
         d="m 1286.4,5785.22 0,-949.42 3401,0 0,949.42 -3401,0 z m 1047.61,-562.5 0,-58.52 129.15,0 -117.05,29.26 117.05,29.26 -129.15,0 z"
         id="path102"
         inkscape:connector-curvature="0"
         style="clip-rule:evenodd" /></clipPath><clipPath
       clipPathUnits="userSpaceOnUse"
       id="clipPath110"><path
         d="m 1286.4,5785.22 0,-949.42 3401,0 0,949.42 -3401,0 z"
         id="path112"
         inkscape:connector-curvature="0" /></clipPath><clipPath
       clipPathUnits="userSpaceOnUse"
       id="clipPath122"><path
         d="m 1286.4,5785.22 0,-949.42 3401,0 0,949.42 -3401,0 z m 2376.15,-386.92 0,58.52 -129.15,0 117.05,-29.26 -117.05,-29.26 129.15,0 z"
         id="path124"
         inkscape:connector-curvature="0"
         style="clip-rule:evenodd" /></clipPath><clipPath
       clipPathUnits="userSpaceOnUse"
       id="clipPath132"><path
         d="m 1286.4,5785.22 0,-949.42 3401,0 0,949.42 -3401,0 z"
         id="path134"
         inkscape:connector-curvature="0" /></clipPath></defs><sodipodi:namedview
     pagecolor="#ffffff"
     bordercolor="#666666"
     borderopacity="1"
     objecttolerance="10"
     gridtolerance="10"
     guidetolerance="10"
     inkscape:pageopacity="0"
     inkscape:pageshadow="2"
     inkscape:window-width="1366"
     inkscape:window-height="705"
     id="namedview4"
     showgrid="false"
     fit-margin-top="0"
     fit-margin-left="30"
     fit-margin-right="30"
     fit-margin-bottom="0"
     inkscape:zoom="1.2684253"
     inkscape:cx="313.91087"
     inkscape:cy="22.804307"
     inkscape:window-x="-8"
     inkscape:window-y="-8"
     inkscape:window-maximized="1"
     inkscape:current-layer="g10" /><g
     id="g10"
     inkscape:groupmode="layer"
     inkscape:label="ss414_prac3_correlation_eng"
     transform="matrix(1.25,0,0,-1.25,-131.05006,722.49814)"><g
       id="g82"><text
         id="text84"
         style="font-variant:normal;font-weight:normal;font-size:11.7052002px;font-family:'Times New Roman';-inkscape-font-specification:Times-Roman;writing-mode:lr-tb;fill:#000000;fill-opacity:1;fill-rule:nonzero;stroke:none"
         transform="matrix(1,0,0,-1,131.566,522.272)"><tspan
           id="tspan86"
           sodipodi:role="line"
           y="0"
           x="0 3.2540455 9.1066456 12.360691 16.258522">tx/rx</tspan></text>
</g><path
       inkscape:connector-curvature="0"
       id="path88"
       style="fill:#000000;fill-opacity:1;fill-rule:evenodd;stroke:none"
       d="m 219.355,531.051 c 0,-1.616 -1.31,-2.926 -2.926,-2.926 -1.616,0 -2.927,1.31 -2.927,2.926 0,1.616 1.311,2.926 2.927,2.926 1.616,0 2.926,-1.31 2.926,-2.926" /><path
       inkscape:connector-curvature="0"
       id="path90"
       style="fill:none;stroke:#000000;stroke-width:0.292629;stroke-linecap:butt;stroke-linejoin:miter;stroke-miterlimit:10;stroke-dasharray:none;stroke-opacity:1"
       d="m 219.355,531.051 c 0,-1.616 -1.31,-2.926 -2.926,-2.926 -1.616,0 -2.927,1.31 -2.927,2.926 0,1.616 1.311,2.926 2.927,2.926 1.616,0 2.926,-1.31 2.926,-2.926 z" /><path
       inkscape:connector-curvature="0"
       id="path92"
       style="fill:none;stroke:#000000;stroke-width:0.292629;stroke-linecap:butt;stroke-linejoin:miter;stroke-miterlimit:10;stroke-dasharray:none;stroke-opacity:1"
       d="m 193.018,577.871 0,-93.641" /><path
       inkscape:connector-curvature="0"
       id="path94"
       style="fill:none;stroke:#000000;stroke-width:0.292629;stroke-linecap:butt;stroke-linejoin:miter;stroke-miterlimit:10;stroke-dasharray:none;stroke-opacity:1"
       d="m 193.018,531.051 23.411,0" /><path
       inkscape:connector-curvature="0"
       id="path104"
       style="fill:none;stroke:#000000;stroke-width:0.292629;stroke-linecap:butt;stroke-linejoin:miter;stroke-miterlimit:10;stroke-dasharray:none;stroke-opacity:1"
       d="m 365.67,519.346 -131.684,0" /><path
       inkscape:connector-curvature="0"
       id="path114"
       style="fill:#000000;fill-opacity:1;fill-rule:evenodd;stroke:none"
       d="m 246.316,522.272 -11.705,-2.926 11.705,-2.926 0,5.852" /><path
       inkscape:connector-curvature="0"
       id="path116"
       style="fill:none;stroke:#000000;stroke-width:0.292629;stroke-linecap:butt;stroke-linejoin:miter;stroke-miterlimit:10;stroke-dasharray:none;stroke-opacity:1"
       d="m 246.316,522.272 -11.705,-2.926 11.705,-2.926 0,5.852 z" /><path
       inkscape:connector-curvature="0"
       id="path126"
       style="fill:none;stroke:#000000;stroke-width:0.292629;stroke-linecap:butt;stroke-linejoin:miter;stroke-miterlimit:10;stroke-dasharray:none;stroke-opacity:1"
       d="m 233.986,542.756 131.684,0" /><path
       inkscape:connector-curvature="0"
       id="path136"
       style="fill:#000000;fill-opacity:1;fill-rule:evenodd;stroke:none"
       d="m 353.34,539.83 11.705,2.926 -11.705,2.926 0,-5.852" /><path
       inkscape:connector-curvature="0"
       id="path138"
       style="fill:none;stroke:#000000;stroke-width:0.292629;stroke-linecap:butt;stroke-linejoin:miter;stroke-miterlimit:10;stroke-dasharray:none;stroke-opacity:1"
       d="m 353.34,539.83 11.705,2.926 -11.705,2.926 0,-5.852 z" /><path
       inkscape:connector-curvature="0"
       id="path140"
       style="fill:#e6e6e6;fill-opacity:1;fill-rule:evenodd;stroke:none"
       d="m 389.08,551.535 -8.779,-17.558 8.779,-17.557 17.558,-8.779 20.483,-2.927 14.632,14.632 26.337,8.779 0,20.484 -26.337,0 -17.558,-2.927 -11.705,8.779 -20.484,11.705 -2.926,-14.631" /><path
       inkscape:connector-curvature="0"
       id="path142"
       style="fill:none;stroke:#000000;stroke-width:0.292629;stroke-linecap:butt;stroke-linejoin:miter;stroke-miterlimit:10;stroke-dasharray:none;stroke-opacity:1"
       d="m 389.08,551.535 -8.779,-17.558 8.779,-17.557 17.558,-8.779 20.483,-2.927 14.632,14.632 26.337,8.779 0,20.484 -26.337,0 -17.558,-2.927 -11.705,8.779 -20.484,11.705 -2.926,-14.631 z" /><g
       id="g144"><text
         id="text146"
         style="font-variant:normal;font-weight:normal;font-size:12.8757px;font-family:'Times New Roman';-inkscape-font-specification:Times-Roman;writing-mode:lr-tb;fill:#000000;fill-opacity:1;fill-rule:nonzero;stroke:none"
         transform="matrix(1,0,0,-1,233.986,501.788)"><tspan
           id="tspan148"
           sodipodi:role="line"
           y="0"
           x="0 6.43785 10.725458 14.304903">y(t)</tspan><tspan
           id="tspan150"
           sodipodi:role="line"
           y="-46.820702"
           x="0 6.43785 10.725458 14.304903">x(t)</tspan></text>
<text
         id="text152"
         style="font-variant:normal;font-weight:normal;font-size:11.7052002px;font-family:'Times New Roman';-inkscape-font-specification:Times-Roman;writing-mode:lr-tb;fill:#000000;fill-opacity:1;fill-rule:nonzero;stroke:none"
         transform="matrix(1,0,0,-1,128.64,533.9775)"><tspan
           id="tspan154"
           sodipodi:role="line"
           y="0"
           x="0 7.8073683 13.004478 18.857077 24.054186">Radar</tspan></text>
</g><path
       inkscape:connector-curvature="0"
       id="path156"
       style="fill:none;stroke:#000000;stroke-width:0.292629;stroke-linecap:butt;stroke-linejoin:miter;stroke-miterlimit:10;stroke-dasharray:none;stroke-opacity:1"
       d="m 193.01,577.867 c -17.899,-8.729 -29.255,-26.902 -29.255,-46.816 0,-19.915 11.356,-38.087 29.255,-46.816" /></g></svg>